<?xml version="1.0" encoding="UTF-8" standalone="no"?>
<!-- Created with Inkscape (http://www.inkscape.org/) -->

<svg
   width="512"
   height="256"
   viewBox="0 0 135.46669 67.733345"
   version="1.1"
   id="svg1"
   inkscape:version="1.4.2 (ebf0e940d0, 2025-05-08)"
   sodipodi:docname="second.svg"
   inkscape:export-filename="first.png"
   inkscape:export-xdpi="96"
   inkscape:export-ydpi="96"
   xmlns:inkscape="http://www.inkscape.org/namespaces/inkscape"
   xmlns:sodipodi="http://sodipodi.sourceforge.net/DTD/sodipodi-0.dtd"
   xmlns:xlink="http://www.w3.org/1999/xlink"
   xmlns="http://www.w3.org/2000/svg"
   xmlns:svg="http://www.w3.org/2000/svg">
  <sodipodi:namedview
     id="namedview1"
     pagecolor="#ffffff"
     bordercolor="#000000"
     borderopacity="0.25"
     inkscape:showpageshadow="2"
     inkscape:pageopacity="0.0"
     inkscape:pagecheckerboard="0"
     inkscape:deskcolor="#d1d1d1"
     inkscape:document-units="mm"
     showguides="false"
     inkscape:zoom="2.1896304"
     inkscape:cx="277.90078"
     inkscape:cy="127.19042"
     inkscape:window-width="1896"
     inkscape:window-height="1014"
     inkscape:window-x="0"
     inkscape:window-y="0"
     inkscape:window-maximized="1"
     inkscape:current-layer="layer1" />
  <defs
     id="defs1">
    <linearGradient
       gradientUnits="userSpaceOnUse"
       id="linear-gradient-2554fbbc168494bd92c970521b88236e"
       x1="-319.9999999999999"
       x2="127.99999999999996"
       y1="-554.2562584220408"
       y2="221.70250336881628">
      <stop
         offset="0%"
         stop-color="#3e5993"
         id="stop1" />
      <stop
         offset="25%"
         stop-color="#4564a5"
         id="stop2" />
      <stop
         offset="100%"
         stop-color="#4d6fb7"
         id="stop3" />
    </linearGradient>
    <linearGradient
       gradientUnits="userSpaceOnUse"
       id="linear-gradient-f683afeaafe0676dd2d738a2ab63a1d7"
       x1="-319.9999999999999"
       x2="127.99999999999996"
       y1="-554.2562584220408"
       y2="221.70250336881628">
      <stop
         offset="0%"
         stop-color="#6d9bbc"
         id="stop4" />
      <stop
         offset="25%"
         stop-color="#72a9cf"
         id="stop5" />
      <stop
         offset="100%"
         stop-color="#77b6e1"
         id="stop6" />
    </linearGradient>
    <circle
       id="a"
       class="st1"
       cx="175"
       cy="175"
       r="150" />
  </defs>
  <g
     inkscape:label="Layer 1"
     inkscape:groupmode="layer"
     id="layer1"
     transform="matrix(0.10691514,0,0,0.10691514,103.46942,32.28254)">
    <style
       id="style1">.st1{opacity:.15}.st3{fill:#f1f1f2}.st4{fill:#231f20}.st5{fill:#808184}.st8{fill:#59595c}.st9{fill:#a7a8ab}.st10{fill:#6d6e70}.st11{fill:#221f1f}.st12{fill:#404041}.st13{fill:#58595b}.st14{fill:#bbbdbf}.st15{fill:#fff}.st16{fill:#a6a8ab}</style>
    <rect
       style="fill:#526ead;fill-opacity:1;stroke-width:3.31434"
       id="rect8"
       width="1696.9399"
       height="848.46997"
       x="-618.48462"
       y="-899.40973"
       transform="matrix(0.74666665,0,0,0.74666665,-505.96957,369.61381)"
       inkscape:label="rect8" />
    <g
       id="g12"
       transform="matrix(0.56888888,0,0,0.56888888,-251.09292,-325.86065)"
       style="display:inline">
      <g
         id="a-4"
         fill="#ffffff"
         transform="matrix(2.4747041,0,0,2.4747041,-1259.7865,-143.56439)">
        <path
           id="path2-5"
           d="M 177.44636,75.000002 354.97513,291.3208 239.34745,75.000002 Z M 354.97513,291.3208 333.66851,75.000002 h -44.31266 z m 0,0 65.61927,-216.320798 h -44.31266 z m 0,0 L 532.50732,75.000002 H 470.6028 Z m 0,0 L 759.68742,75.000002 H 618.5646 Z" />
        <path
           id="path3-0"
           d="M -5.9454775e-6,75.000002 V 104.60816 L 355.84373,294.8124 358.31566,294.06052 91.385645,75.000002 Z M 358.31566,294.06052 362.67585,297.64138 900,244.72161 V 129.74282 Z m 4.36019,3.58086 -1.29776,0.13046 4.17138,2.22816 z m 2.87362,2.35862 -6.5712,-1.9947 2.39982,-0.23346 -5.53436,-2.95944 -3.69758,1.12266 L -5.9454775e-6,189.11019 v 74.88556 L 345.31059,298.0053 338.73939,300 l 13.40676,-1.32179 z" />
      </g>
      <use
         xlink:href="#a-4"
         transform="matrix(1,0,0,-1,1.6183124e-6,1197.6937)"
         fill="#ffffff"
         id="use3" />
    </g>
    <g
       id="g8"
       transform="matrix(0.56888999,0,0,0.56888999,-605.86576,285.13882)">
      <circle
         cx="229.98532"
         cy="-475.17474"
         r="355.61496"
         fill="#ff66aa"
         id="circle1"
         style="display:inline;fill:#4d6eb7;fill-opacity:1;stroke-width:2.4747" />
      <g
         class="st1"
         id="Triangles"
         transform="matrix(2.4747041,0,0,2.4747041,-203.08789,-908.24795)"
         style="display:inline">
        <defs
           id="defs1-3">
          <circle
             id="circle7"
             class="st1"
             cx="175"
             cy="175"
             r="150" />
        </defs>
        <clipPath
           id="b">
          <use
             xlink:href="#a"
             overflow="visible"
             id="use1" />
        </clipPath>
        <g
           clip-path="url(#b)"
           id="g54">
          <path
             class="st3"
             d="M -81.2,336.9 175,-106.9 431.2,336.9 Z"
             id="path1" />
          <path
             class="st4"
             d="M 68.8,443.7 325,0 581.2,443.7 Z"
             id="path2" />
          <path
             class="st5"
             d="M -409.8,363.4 -153.6,-80.3 102.6,363.4 Z"
             id="path3" />
          <path
             d="M 61.4,158.2 317.6,-285.6 573.8,158.2 Z"
             fill="#929497"
             id="path4" />
          <path
             d="M -222.4,380 33.8,-63.7 290,380 Z"
             fill="#636466"
             id="path5" />
          <path
             class="st8"
             d="M -100.1,646.9 156.1,203.1 412.3,646.9 Z"
             id="path6" />
          <path
             class="st9"
             d="m -164.9,147.2 97.3,-168.5 97.3,168.5 z m 81.5,376.6 97.3,-168.5 97.3,168.5 z"
             id="path7" />
          <path
             class="st10"
             d="M 134.3,220.8 231.6,52.3 328.9,220.8 Z"
             id="path8" />
          <path
             class="st9"
             d="M 298.7,485.7 396,317.2 493.2,485.7 Z"
             id="path9" />
          <path
             class="st8"
             d="m 108.4,621.4 48.6,-84.2 48.7,84.2 z"
             id="path10" />
          <path
             class="st11"
             d="m 278.7,305.9 48.6,-84.2 48.6,84.2 z M 46.2,400 143.5,231.5 240.8,400 Z"
             id="path11-6" />
          <path
             class="st5"
             d="M 108.8,-86.6 36.5,38.6 H 231.1 L 158.8,-86.6 Z m 213.2,0 -23.6,40.9 h 97.3 L 372,-86.6 Z"
             id="path12-7" />
          <path
             class="st12"
             d="M 35.3,332.5 132.6,164 229.9,332.5 Z"
             id="path13-5" />
          <path
             class="st5"
             d="m 236.1,369.2 97.2,-168.5 97.3,168.5 z"
             id="path14" />
          <path
             class="st8"
             d="m -51.9,428.8 48.1,-83.3 48.1,83.3 z"
             id="path15" />
          <path
             class="st13"
             d="m 123.2,104.8 48.1,-83.3 48.1,83.3 z"
             id="path16" />
          <path
             class="st11"
             d="M 283,90.2 331.1,6.9 379.2,90.2 Z"
             id="path17" />
          <path
             class="st5"
             d="m -61.9,331.6 24.1,-41.7 24,41.7 z"
             id="path18" />
          <path
             class="st8"
             d="m 132.5,621.6 24,-41.7 24.1,41.7 z m 84.2,-156 24,-41.7 24,41.7 z"
             id="path19" />
          <path
             class="st12"
             d="m 197.1,259.7 48.1,-83.3 48.1,83.3 z"
             id="path20" />
          <path
             class="st3"
             d="m 283,239.3 48.1,-83.3 48.1,83.3 z"
             id="path21" />
          <path
             class="st9"
             d="M -49.5,78.8 -1.4,-4.5 46.7,78.8 Z m -48.4,146.6 48.1,-83.3 48.1,83.3 z"
             id="path22" />
          <path
             class="st5"
             d="m 288.2,-20 24,-41.6 24.1,41.6 z"
             id="path23" />
          <path
             class="st14"
             d="m 187.2,116.2 24.1,-41.6 24,41.6 z"
             id="path24" />
          <path
             class="st15"
             d="m 231.9,63.8 6.4,-11 6.4,11 z"
             id="path25" />
          <path
             class="st10"
             d="M 28.9,117.8 77,34.5 l 48.1,83.3 z"
             id="path26" />
          <path
             class="st16"
             d="m 110.8,331.9 48.1,-83.3 48.1,83.3 z"
             id="path27" />
          <path
             class="st4"
             d="m 107,263.1 18.1,-31.4 18,31.4 z"
             id="path28" />
          <path
             class="st9"
             d="m 214,285.3 24,-41.7 24.1,41.7 z m -5.4,-118.1 24,-41.6 24.1,41.6 z"
             id="path29" />
          <path
             class="st3"
             d="m 226,102.8 48.1,-83.3 48,83.3 z"
             id="path30" />
          <path
             class="st16"
             d="M 1.2,143.6 49.3,60.3 97.4,143.6 Z"
             id="path31" />
          <path
             class="st8"
             d="m 14,272.2 18.3,-31.8 18.3,31.8 z"
             id="path32" />
          <path
             class="st16"
             d="m 265.4,230.6 18.3,-31.8 18.3,31.8 z"
             id="path33" />
          <path
             class="st15"
             d="M 156.7,84.8 175,53.1 193.3,84.8 Z"
             id="path34" />
          <path
             class="st13"
             d="m 156.7,282.1 18.3,-31.8 18.3,31.8 z"
             id="path35" />
          <path
             class="st8"
             d="M -19.7,88 -1.4,56.2 17,88 Z m 258.1,272.2 18.3,-31.7 18.3,31.7 z"
             id="path36" />
          <path
             class="st5"
             d="m 307.5,135.6 18.3,-31.8 18.3,31.8 z"
             id="path37" />
          <path
             class="st14"
             d="M 45.3,233.1 63.6,201.3 82,233.1 Z"
             id="path38" />
          <path
             class="st3"
             d="M 72.3,295.1 90.6,263.3 109,295.1 Z M 27.6,167.7 46,136 64.3,167.7 Z"
             id="path39" />
          <path
             class="st8"
             d="m 113.7,123.7 9.1,-15.8 9.2,15.8 z"
             id="path40" />
          <path
             class="st14"
             d="m 50.8,152.9 9.1,-15.8 9.2,15.8 z"
             id="path41" />
          <path
             d="m 107.7,84.4 9.2,-15.9 9.2,15.9 z"
             fill="#e6e7e8"
             id="path42" />
          <path
             class="st11"
             d="m 69,360.2 18.3,-31.7 18.3,31.7 z"
             id="path43" />
          <path
             class="st8"
             d="m 112.2,419.2 18.3,-31.8 18.3,31.8 z m 404.5,-131.1 18.4,-31.8 18.3,31.8 z"
             id="path44" />
          <path
             class="st5"
             d="M 187.7,61.9 206,30.1 224.4,61.9 Z"
             id="path45" />
          <path
             class="st15"
             d="M 283.4,128.2 301.7,96.5 320,128.2 Z"
             id="path46" />
          <path
             class="st8"
             d="m 316.6,622.1 9.2,-15.9 9.2,15.9 z"
             id="path47" />
          <path
             class="st9"
             d="m 262.4,411.2 9.2,-15.8 9.1,15.8 z"
             id="path48" />
          <path
             class="st8"
             d="m 577.5,394.4 9.2,-15.9 9.2,15.9 z"
             id="path49" />
          <path
             class="st5"
             d="m -97.4,339.9 18.3,-31.7 18.4,31.7 z m 375.1,-24.4 18.4,-31.8 18.3,31.8 z"
             id="path50" />
          <path
             class="st9"
             d="m 286.9,268.6 9.2,-15.9 9.1,15.9 z"
             id="path51" />
          <path
             d="m 210.1,128.5 10.9,-18.9 10.9,18.9 z"
             fill="#d0d2d3"
             id="path52" />
          <path
             class="st5"
             d="m 94.9,-41.1 9.1,-15.9 9.2,15.9 z"
             id="path53" />
          <path
             class="st8"
             d="m 386.7,121.9 18.3,-31.7 18.4,31.7 z m 76.3,214.9 9.2,-15.9 9.2,15.9 z"
             id="path54" />
        </g>
      </g>
      <g
         id="g6"
         transform="matrix(0.84784572,0,0,0.84784572,763.38549,-480.39345)"
         style="display:inline;fill:#ffffff">
        <g
           id="g7"
           transform="matrix(0.96719451,0,0,0.96719263,-30.309789,-8.1753047)"
           style="fill:#ffffff">
          <polygon
             fill="url(#linear-gradient-2554fbbc168494bd92c970521b88236e)"
             points="-304,-304.84094 -176,-526.54345 384,443.40501 128,443.40501 -4.0726089e-14,221.7025 -128,443.40501 -256,443.40501 -320,332.55376 -128,0 "
             transform="matrix(0.26458333,0,0,0.26458333,-703.79167,161.46364)"
             id="polygon6"
             style="fill:#ffffff" />
          <polygon
             fill="url(#linear-gradient-f683afeaafe0676dd2d738a2ab63a1d7)"
             points="-304,-304.84094 -176,-526.54345 384,443.40501 128,443.40501 -4.0726089e-14,221.7025 -128,443.40501 -256,443.40501 -320,332.55376 -128,0 "
             transform="matrix(0.13229167,0.22913589,-0.22913589,0.13229167,-788.45833,14.816667)"
             id="polygon7"
             style="fill:#ffffff" />
          <polygon
             fill="url(#linear-gradient-2554fbbc168494bd92c970521b88236e)"
             points="-304,-304.84094 -176,-526.54345 384,443.40501 128,443.40501 -4.0726089e-14,221.7025 -128,443.40501 -256,443.40501 -320,332.55376 -128,0 "
             transform="matrix(-0.13229167,0.22913589,-0.22913589,-0.13229167,-703.79167,-131.8303)"
             id="polygon8"
             style="fill:#ffffff" />
          <polygon
             fill="url(#linear-gradient-f683afeaafe0676dd2d738a2ab63a1d7)"
             points="-304,-304.84094 -176,-526.54345 384,443.40501 128,443.40501 -4.0726089e-14,221.7025 -128,443.40501 -256,443.40501 -320,332.55376 -128,0 "
             transform="matrix(-0.26458333,0,0,-0.26458333,-534.45833,-131.8303)"
             id="polygon9"
             style="fill:#ffffff" />
          <polygon
             fill="url(#linear-gradient-2554fbbc168494bd92c970521b88236e)"
             points="-304,-304.84094 -176,-526.54345 384,443.40501 128,443.40501 -4.0726089e-14,221.7025 -128,443.40501 -256,443.40501 -320,332.55376 -128,0 "
             transform="matrix(-0.13229167,-0.22913589,0.22913589,-0.13229167,-449.79167,14.816667)"
             id="polygon10"
             style="fill:#ffffff" />
          <polygon
             fill="url(#linear-gradient-f683afeaafe0676dd2d738a2ab63a1d7)"
             points="-304,-304.84094 -176,-526.54345 384,443.40501 128,443.40501 -4.0726089e-14,221.7025 -128,443.40501 -256,443.40501 -320,332.55376 -128,0 "
             transform="matrix(0.13229167,-0.22913589,0.22913589,0.13229167,-534.45833,161.46364)"
             id="polygon11"
             style="fill:#ffffff" />
        </g>
      </g>
      <path
         class="st15"
         d="m 44.629991,-397.46903 c -11.63111,0 -21.7774,-1.97976 -30.43886,-5.69182 -8.6614698,-3.71205 -15.8381098,-9.1564 -21.2824598,-15.8381 -5.6918202,-6.6817 -9.8988102,-14.60076 -12.8684602,-23.75716 -2.96964,-9.15641 -4.20699,-18.80775 -4.20699,-29.44898 0,-10.64123 1.48482,-20.54004 4.20699,-29.69645 2.96965,-9.1564 7.17664,-17.32293 12.8684602,-24.00463 5.69182,-6.6817 12.86847,-12.12605 21.2824598,-16.08557 8.66146,-3.95953 18.80775,-5.93929 30.43886,-5.93929 11.63111,0 21.7774,1.97976 30.43886,5.93929 8.66146,3.95952 15.83811,9.1564 21.7774,16.08557 5.691809,6.6817 9.898809,14.84823 12.868459,24.00463 2.72217,9.15641 4.20699,19.05522 4.20699,29.69645 0,10.64123 -1.48482,20.29257 -4.20699,29.44898 -2.72218,9.1564 -6.92917,17.07546 -12.868459,23.75716 -5.69182,6.6817 -12.86847,12.12605 -21.7774,15.8381 -8.41399,3.95953 -18.80775,5.69182 -30.43886,5.69182 z m 0,-29.94392 c 10.39376,0 17.81787,-3.95952 22.27234,-11.63111 4.45446,-7.67158 6.6817,-18.80775 6.6817,-33.16103 0,-14.35328 -2.22724,-25.48945 -6.6817,-33.16103 -4.45447,-7.67159 -11.87858,-11.63111 -22.27234,-11.63111 -10.14629,0 -17.5704,3.95952 -22.02487,11.63111 -4.45446,7.67158 -6.92917,18.80775 -6.92917,33.16103 0,14.35328 2.22724,25.48945 6.92917,33.16103 4.45447,7.91906 11.87858,11.63111 22.02487,11.63111 z m 128.189669,-35.88321 c -10.39376,-2.96964 -18.56028,-7.42411 -24.2521,-13.11593 -5.93929,-5.93929 -8.66146,-14.60075 -8.66146,-26.23186 0,-14.10581 4.9494,-24.99451 15.09569,-33.16103 10.14629,-7.91906 23.75716,-11.87858 41.32756,-11.87858 a 121.58221,121.58221 0 0 1 42.56491,7.91905 c -0.49494,4.70194 -1.23735,9.89882 -2.72217,15.09569 -1.48483,5.19688 -3.21712,9.65135 -5.19688,13.61088 -4.45447,-1.7323 -9.40388,-3.46459 -14.60076,-4.94941 -5.44435,-1.48482 -11.13617,-1.97977 -16.82799,-1.97977 -6.18676,0 -11.13616,0.98989 -14.60075,2.96965 -3.46459,1.97976 -5.19688,4.94941 -5.19688,9.40387 0,3.95953 1.23735,6.92918 3.71206,8.66147 2.4747,1.73229 5.93929,3.21711 10.64123,4.70194 l 15.8381,4.70193 c 5.19688,1.48483 9.89882,3.21712 14.10582,5.44435 4.20699,2.22724 7.67158,4.70194 10.64122,7.91906 2.96965,3.21711 5.19688,6.92917 6.92917,11.63111 1.7323,4.70193 2.47471,10.39375 2.47471,16.82798 0,6.92917 -1.48482,13.11594 -4.207,19.05522 a 43.554792,43.554792 0 0 1 -12.37352,15.34317 c -5.44435,4.45447 -12.12605,7.67158 -19.79763,10.39376 a 86.614643,86.614643 0 0 1 -26.47934,3.71205 c -4.45446,0 -8.41399,-0.24747 -12.12605,-0.49494 -3.71205,-0.24747 -7.17664,-0.74241 -10.64122,-1.48482 -3.46459,-0.74241 -6.6817,-1.48482 -10.14629,-2.4747 -3.21712,-0.98989 -6.92917,-2.22724 -10.8887,-3.71206 0.24747,-4.94941 1.23735,-10.14629 2.72218,-15.09569 1.48482,-5.19688 3.21711,-10.14629 5.44435,-14.84823 6.18676,2.4747 11.87858,4.207 17.32292,5.44435 5.44435,1.23735 11.13617,1.73229 17.07546,1.73229 2.47471,0 5.44435,-0.24747 8.414,-0.74241 2.96964,-0.49494 5.93929,-1.23735 8.41399,-2.4747 2.4747,-1.23735 4.70194,-2.72218 6.43423,-4.70194 1.73229,-1.97976 2.72218,-4.45447 2.72218,-7.67158 0,-4.45447 -1.23736,-7.67159 -3.95953,-9.65135 -2.72218,-1.97976 -6.43423,-3.71206 -11.13617,-5.19688 z m 97.25587,-80.92282 c 6.6817,-0.98988 13.11593,-1.73229 19.79763,-1.73229 6.43423,0 13.11594,0.49494 19.79764,1.73229 v 75.97342 c 0,7.67158 0.49494,13.85834 1.73229,18.80775 1.23735,4.94941 2.96964,8.90893 5.44435,11.63111 2.4747,2.96964 5.69182,4.9494 9.40387,6.18676 3.71206,1.23735 8.16653,1.73229 13.11594,1.73229 6.92917,0 12.62099,-0.74241 17.32292,-1.97976 v -112.35157 c 6.6817,-0.98988 13.11594,-1.73229 19.55017,-1.73229 6.43423,0 13.11593,0.49494 19.79763,1.73229 v 138.08849 c -5.93929,1.97976 -13.85834,3.95953 -23.50969,5.93929 a 161.67242,161.67242 0 0 1 -57.66061,0.74241 c -8.66146,-1.48482 -16.33304,-4.70194 -23.01474,-9.40388 -6.6817,-4.70193 -11.87858,-11.87858 -15.59064,-21.03498 -3.95953,-9.15641 -5.93929,-21.52993 -5.93929,-36.87309 v -77.45824 z m 163.083,143.53284 c -0.98988,-6.92917 -1.73229,-13.61087 -1.73229,-20.29258 0,-6.6817 0.49494,-13.61087 1.73229,-20.54004 6.92917,-0.98988 13.61087,-1.73229 20.29257,-1.73229 6.6817,0 13.61088,0.49494 20.54005,1.73229 0.98988,6.92917 1.73229,13.85834 1.73229,20.29257 0,6.92918 -0.49494,13.61088 -1.73229,20.54005 -6.92917,0.98988 -13.85835,1.73229 -20.29258,1.73229 -6.92917,-0.24747 -13.61087,-0.74241 -20.54004,-1.73229 z m -0.98988,-199.70862 c 7.17664,-0.98988 14.35328,-1.73229 21.28245,-1.73229 7.17665,0 14.35329,0.49494 21.7774,1.73229 l -2.72218,135.86125 c -6.43423,0.98988 -12.62099,1.7323 -18.56028,1.7323 -6.18676,0 -12.62099,-0.49495 -18.80775,-1.7323 z"
         id="path55"
         style="display:none;stroke-width:2.4747" />
      <path
         class="st15"
         d="m 229.98532,-846.38035 c -204.905489,0 -371.20561,166.30012 -371.20561,371.20561 0,204.9055 166.300121,371.20562 371.20561,371.20562 204.9055,0 371.20562,-166.30012 371.20562,-371.20562 0,-204.90549 -166.30012,-371.20561 -371.20562,-371.20561 z m 0,705.29067 c -184.612919,0 -334.08505,-149.47213 -334.08505,-334.08506 0,-184.61292 149.472131,-334.08505 334.08505,-334.08505 184.61293,0 334.08506,149.47213 334.08506,334.08505 0,184.61293 -149.47213,334.08506 -334.08506,334.08506 z"
         id="path56"
         style="display:inline;stroke-width:2.4747" />
    </g>
  </g>
</svg>
